# xmcd
#
# Track frame offsets:
#	150
#	13587
#	28360
#	41395
#	54575
#	68342
#	81650
#	96707
#	108365
#	122250
#	139487
#	153742
#	168150
#	178605
#	193070
#
# Disc length: 2830 seconds
#
# Revision: 1
# Processed by: cddbd v1.5.1PL0 Copyright (c) Steve Scherf et al.
# Submitted via: EasyCDDAExtractor 7.0.5.4
#
DISCID=d00b0c0f
DTITLE=John Hammond - Long As I Have You
DYEAR=1998
DGENRE=Blues
TTITLE0=Don't Start Me Talkin'
TTITLE1=As Long As I Have You
TTITLE2=I Feel So Sorry
TTITLE3=Stranded
TTITLE4=Lookin' For Trouble
TTITLE5=I Got Lucky
TTITLE6=Sad To Be Alone
TTITLE7=Goin' Away Baby
TTITLE8=So Many Roads, So Many Trains
TTITLE9=I'm Gonna Find My Baby
TTITLE10=Crying At Daylight
TTITLE11=Everything's Gonna Be Alright
TTITLE12=Untrue Blues
TTITLE13=Tell Me Mama
TTITLE14=Homeless Blues
EXTD=
EXTT0=
EXTT1=
EXTT2=
EXTT3=
EXTT4=
EXTT5=
EXTT6=
EXTT7=
EXTT8=
EXTT9=
EXTT10=
EXTT11=
EXTT12=
EXTT13=
EXTT14=
PLAYORDER=
